# xmcd
#
# Track frame offsets:
#	150
#	21525
#	38912
#	61723
#	83505
#	107729
#	126315
#	146591
#	165159
#	185708
#	205637
#	225974
#
# Disc length: 3252 seconds
#
# Revision: 1
# Processed by: cddbd v1.5.2PL0 Copyright (c) Steve Scherf et al.
# Submitted via: EZCDAudioConverter 8.0.2.1
#
DISCID=940cb20c
DTITLE=Hoàng Châu - Cơn Đau Cuối Cùng
DYEAR=2011
DGENRE=World Pop
TTITLE0=Hoàng Châu - Cơn Đau Cuối Cùng
TTITLE1=Hoàng Châu - Khóc một giấc mơ
TTITLE2=Hoàng Châu - Rạn nứt một trái tim
TTITLE3=Hoàng Châu - Không nghe không thấy cũng không đau
TTITLE4=Akira Phan - Sóng khóc
TTITLE5=Hoàng Châu - Đàn ông khóc
TTITLE6=Hoàng Châu - Thế là quên đi
TTITLE7=Hoàng Châu - Ngàn điều ước cho anh
TTITLE8=Hoàng Châu - Người vội vàng
TTITLE9=Hoàng Châu - Nói yêu nhau lại không hiểu nhau
TTITLE10=Hoàng Châu - Đếm thời gian
TTITLE11=Hoàng Châu - Thuyền giấy
EXTD=
EXTT0=
EXTT1=
EXTT2=
EXTT3=
EXTT4=
EXTT5=
EXTT6=
EXTT7=
EXTT8=
EXTT9=
EXTT10=
EXTT11=
PLAYORDER=
